<svg xmlns="http://www.w3.org/2000/svg" width="864.28" height="825.62" viewBox="0 0 864.28 825.62">
  <defs>
    <style>
      .cls-1 {
        fill: #fff;
      }
    </style>
  </defs>
  <g id="Calque_2" data-name="Calque 2">
    <g id="Layer_1" data-name="Layer 1">
      <g>
        <path class="cls-1" d="M862.29,512.35a4.54,4.54,0,0,0-4.87-4,4.46,4.46,0,0,0-4.12,3.15c0,.21-.12.42-.17.63C814.64,634,661.86,720.24,558.82,668.15c-21.49-11.57-40.93-29.3-56.85-54.32l-.1-.15a61,61,0,0,1-10.65-31.32l-23.43-398.3A61.32,61.32,0,0,1,484,138.39c.85-.88,1.72-1.75,2.62-2.59,24.56-22.83,28.71-58.91,16.76-88.14l-.2-.51-.39-.9c-.25-.59-.5-1.18-.77-1.76l-.24-.51c-.32-.7-.65-1.39-1-2.08-.08-.17-.17-.33-.26-.5-.34-.68-.69-1.35-1.06-2-.12-.23-.25-.45-.38-.67-.33-.6-.66-1.2-1-1.78l-.57-1c-.29-.48-.58-1-.88-1.43s-.57-.87-.85-1.3-.44-.67-.67-1c-.39-.57-.79-1.13-1.19-1.68-.13-.18-.25-.36-.38-.53-.52-.71-1.06-1.41-1.6-2.1,0,0,0,0,0,0C478.52,11,458.16-.43,432.13,0c-26-.44-46.39,11-59.72,27.88l0,0c-.55.7-1.09,1.4-1.61,2.11-.13.17-.25.35-.37.52-.41.56-.81,1.12-1.2,1.7-.23.33-.44.66-.66,1s-.58.86-.85,1.3-.58.94-.87,1.42l-.58,1c-.34.58-.67,1.17-1,1.76l-.39.69c-.36.66-.7,1.33-1,2-.09.18-.19.35-.27.53-.34.68-.66,1.36-1,2-.09.18-.18.37-.26.55-.26.57-.5,1.14-.75,1.71-.14.32-.28.63-.41.95-.06.14-.11.29-.17.43-12,29.25-7.85,65.37,16.73,88.22.9.84,1.77,1.7,2.62,2.59a61.32,61.32,0,0,1,16.16,45.67l-23.43,398.3a61.19,61.19,0,0,1-10.65,31.32l-.1.15c-15.92,25-35.36,42.75-56.85,54.32-103,52.1-255.82-34.19-294.31-156-.06-.21-.12-.42-.17-.63a4.46,4.46,0,0,0-4.12-3.15,4.54,4.54,0,0,0-4.87,4A276.26,276.26,0,0,0,0,545.6c-.21,158,134.58,279.1,289.58,280,.66,0,1.33,0,2,0h0c51.22,0,86.57-5.11,110.88-18.1a62.8,62.8,0,0,1,59.3,0c24.31,13,59.66,18.09,110.88,18.1h0l2,0c155-.89,289.79-122,289.58-280a280.66,280.66,0,0,0-2-33.25ZM432.13,118.8a39,39,0,1,1,39-39A39,39,0,0,1,432.13,118.8Z"/>
        <path class="cls-1" d="M513.29,608.38a1.59,1.59,0,0,0,.18.3c.25.33.48.68.73,1a12.69,12.69,0,0,1-.9-1.31Z"/>
        <path class="cls-1" d="M703.61,477.69c0,77.51-33.53,142.79-86.88,190.79a11.06,11.06,0,0,1-9,2.86,2.74,2.74,0,0,1-.28-.05l-.4-.08c-6-1.13-11.63-2.46-16.85-4l-3-.9a138.59,138.59,0,0,1-20.09-8.24,146.08,146.08,0,0,1-40.34-32.33,2.21,2.21,0,0,1-.25-.3c-4.17-5-8.21-10.2-12.31-15.8-.25-.33-.48-.68-.73-1a1.59,1.59,0,0,1-.18-.3l-.13-.2a3.72,3.72,0,0,1,2.21-5.2C592.77,578.23,655.29,516.06,685,435.89c2.89-7.86,14.37-6.61,15.62,1.68a263.71,263.71,0,0,1,3,40.11Z"/>
        <path class="cls-1" d="M160.66,477.69c0,77.51,33.53,142.79,86.88,190.79a11.06,11.06,0,0,0,9,2.86,2.74,2.74,0,0,0,.28-.05l.4-.08c6-1.13,11.63-2.46,16.85-4l3-.9a138.59,138.59,0,0,0,20.09-8.24,146.08,146.08,0,0,0,40.34-32.33,2.21,2.21,0,0,0,.25-.3c4.17-5,8.21-10.2,12.31-15.8.25-.33.48-.68.73-1a1.59,1.59,0,0,0,.18-.3l.13-.2a3.72,3.72,0,0,0-2.21-5.2C271.5,578.23,209,516.06,179.32,435.89c-2.89-7.86-14.37-6.61-15.62,1.68a263.71,263.71,0,0,0-3,40.11Z"/>
      </g>
    </g>
  </g>
</svg>
